<svg width="276" height="220" viewBox="0 0 276 220" fill="none" xmlns="http://www.w3.org/2000/svg">
<circle cx="138" cy="110" r="110" fill="#FFB578"/>
<path d="M4.46103 193.75H7.2247L5.84775 188.975L4.46103 193.75ZM0.26181 200L4.48056 185.205H7.03915L11.2579 200H9.00204L7.78134 195.713H3.90439L2.68369 200H0.26181ZM11.6184 194.922C11.6184 192.878 12.0643 191.423 12.9562 190.557C13.6594 189.867 14.6424 189.521 15.9055 189.521C17.175 189.521 18.1678 190.055 18.884 191.123C19.1184 191.468 19.2811 191.79 19.3723 192.09L17.6047 192.871C17.5526 192.337 17.3345 191.914 16.9504 191.602C16.69 191.393 16.3677 191.289 15.9836 191.289C14.4667 191.289 13.7082 192.471 13.7082 194.834C13.7082 195.999 13.9068 196.888 14.3039 197.5C14.701 198.105 15.2805 198.408 16.0422 198.408C16.576 198.408 17.009 198.213 17.341 197.822C17.6275 197.484 17.8358 197.122 17.966 196.738L19.5676 197.441C19.4178 198.021 19.0988 198.571 18.6105 199.092C17.927 199.814 17.0513 200.176 15.9836 200.176C13.0734 200.176 11.6184 198.424 11.6184 194.922ZM28.8148 192.275V200H26.7249V192.822C26.7249 192.354 26.5817 191.982 26.2952 191.709C26.0153 191.429 25.68 191.289 25.2894 191.289C24.8987 191.289 24.5114 191.406 24.1273 191.641C23.7431 191.868 23.4567 192.096 23.2679 192.324V200H21.178V189.697H23.2679V190.791C23.6455 190.413 24.0394 190.107 24.4495 189.873C24.8662 189.639 25.3512 189.521 25.9046 189.521C26.7509 189.521 27.4476 189.753 27.9944 190.215C28.5413 190.671 28.8148 191.357 28.8148 192.275ZM37.9545 185.391L34.4779 188.33L33.6283 187.49L36.8217 184.189L37.9545 185.391ZM32.4174 193.633H36.0307C36.0307 193.125 35.9428 192.686 35.767 192.314C35.4285 191.631 34.9597 191.289 34.3608 191.289C34.0027 191.289 33.6869 191.37 33.4135 191.533C33.1466 191.689 32.9447 191.895 32.808 192.148C32.5476 192.624 32.4174 193.118 32.4174 193.633ZM30.7768 198.008C30.5749 197.559 30.4317 197.1 30.3471 196.631C30.269 196.156 30.2299 195.56 30.2299 194.844C30.2299 194.121 30.3145 193.421 30.4838 192.744C30.6531 192.067 30.8712 191.53 31.1381 191.133C31.405 190.729 31.7273 190.404 32.1049 190.156C32.7494 189.733 33.5079 189.521 34.3803 189.521C35.2006 189.521 35.9167 189.766 36.5287 190.254C37.6746 191.178 38.2214 192.894 38.1693 195.4H32.3197C32.3197 196.715 32.668 197.601 33.3647 198.057C33.7227 198.291 34.0971 198.408 34.4877 198.408C34.8848 198.408 35.2136 198.359 35.474 198.262C35.7345 198.164 35.9428 198.053 36.099 197.93C36.2553 197.806 36.3985 197.663 36.5287 197.5C36.7045 197.272 36.8249 197.077 36.8901 196.914L38.2182 197.773C37.7364 198.613 37.2221 199.212 36.6752 199.57C36.0697 199.974 35.4024 200.176 34.6733 200.176C33.9506 200.176 33.3321 200.081 32.8178 199.893C32.31 199.704 31.8933 199.453 31.5678 199.141C31.2488 198.828 30.9851 198.451 30.7768 198.008ZM46.361 193.633H49.9742C49.9742 193.125 49.8864 192.686 49.7106 192.314C49.372 191.631 48.9033 191.289 48.3043 191.289C47.9462 191.289 47.6305 191.37 47.3571 191.533C47.0901 191.689 46.8883 191.895 46.7516 192.148C46.4912 192.624 46.361 193.118 46.361 193.633ZM44.7203 198.008C44.5185 197.559 44.3753 197.1 44.2906 196.631C44.2125 196.156 44.1735 195.56 44.1735 194.844C44.1735 194.121 44.2581 193.421 44.4274 192.744C44.5966 192.067 44.8147 191.53 45.0817 191.133C45.3486 190.729 45.6709 190.404 46.0485 190.156C46.693 189.733 47.4515 189.521 48.3239 189.521C49.1442 189.521 49.8603 189.766 50.4723 190.254C51.6181 191.178 52.165 192.894 52.1129 195.4H46.2633C46.2633 196.715 46.6116 197.601 47.3082 198.057C47.6663 198.291 48.0406 198.408 48.4313 198.408C48.8284 198.408 49.1572 198.359 49.4176 198.262C49.678 198.164 49.8864 198.053 50.0426 197.93C50.1989 197.806 50.3421 197.663 50.4723 197.5C50.6481 197.272 50.7685 197.077 50.8336 196.914L52.1617 197.773C51.68 198.613 51.1656 199.212 50.6188 199.57C50.0133 199.974 49.346 200.176 48.6168 200.176C47.8942 200.176 47.2757 200.081 46.7614 199.893C46.2535 199.704 45.8369 199.453 45.5114 199.141C45.1923 198.828 44.9287 198.451 44.7203 198.008ZM53.2937 197.93L54.739 197.051C54.9669 197.376 55.1784 197.637 55.3738 197.832C55.836 198.288 56.4187 198.516 57.1218 198.516C57.6882 198.516 58.0919 198.398 58.3327 198.164C58.5541 197.949 58.6648 197.624 58.6648 197.188C58.6648 196.693 58.5053 196.322 58.1863 196.074C57.8998 195.859 57.6166 195.713 57.3367 195.635L56.4187 195.371C55.3575 195.072 54.5925 194.668 54.1238 194.16C53.6485 193.646 53.4109 192.965 53.4109 192.119C53.4109 191.396 53.7071 190.791 54.2995 190.303C54.9245 189.782 55.8197 189.521 56.9851 189.521C58.0333 189.521 58.935 189.88 59.6902 190.596C60.0157 190.902 60.2208 191.159 60.3054 191.367L59.0945 192.324C58.6387 191.771 58.183 191.429 57.7273 191.299C57.4929 191.227 57.1837 191.191 56.7995 191.191C56.4219 191.191 56.0964 191.289 55.823 191.484C55.5561 191.68 55.4226 191.966 55.4226 192.344C55.4226 192.78 55.6146 193.118 55.9988 193.359C56.3373 193.574 56.6791 193.734 57.0242 193.838L57.9031 194.082C59.2833 194.473 60.1394 195.133 60.4714 196.064C60.6081 196.442 60.6765 196.891 60.6765 197.412C60.6765 197.926 60.5137 198.398 60.1882 198.828C59.8692 199.258 59.446 199.59 58.9187 199.824C58.3913 200.059 57.8575 200.176 57.3171 200.176C56.7833 200.176 56.3406 200.143 55.989 200.078C55.6439 200.013 55.3087 199.899 54.9831 199.736C54.3516 199.417 53.7885 198.815 53.2937 197.93ZM74.8447 192.275V200H72.7548V192.822C72.7548 192.354 72.6116 191.982 72.3251 191.709C72.0452 191.429 71.7099 191.289 71.3193 191.289C70.9286 191.289 70.5413 191.406 70.1572 191.641C69.7731 191.868 69.4866 192.096 69.2978 192.324V200H67.2079V189.697H69.2978V190.791C69.6754 190.413 70.0693 190.107 70.4794 189.873C70.8961 189.639 71.3811 189.521 71.9345 189.521C72.7809 189.521 73.4775 189.753 74.0244 190.215C74.5712 190.671 74.8447 191.357 74.8447 192.275ZM78.4082 193.662C78.3692 194.007 78.3497 194.378 78.3497 194.775C78.3497 195.173 78.3692 195.531 78.4082 195.85C78.4473 196.169 78.5157 196.488 78.6133 196.807C78.7175 197.126 78.8477 197.402 79.004 197.637C79.3555 198.158 79.8503 198.418 80.4883 198.418C81.9011 198.418 82.6075 197.23 82.6075 194.854C82.6075 193.46 82.3991 192.493 81.9825 191.953C81.6439 191.51 81.1459 191.289 80.4883 191.289C79.2839 191.289 78.5905 192.08 78.4082 193.662ZM76.2598 194.844C76.2598 193.216 76.6342 191.924 77.3829 190.967C78.1381 190.003 79.1732 189.521 80.4883 189.521C81.3607 189.521 82.1159 189.743 82.754 190.186C84.0495 191.09 84.6973 192.646 84.6973 194.854C84.6973 197.607 83.8379 199.297 82.1192 199.922C81.6439 200.098 81.1003 200.186 80.4883 200.186C79.8829 200.186 79.3392 200.098 78.8575 199.922C78.3757 199.746 77.9753 199.502 77.6563 199.189C77.3373 198.877 77.0704 198.493 76.8555 198.037C76.4584 197.191 76.2598 196.126 76.2598 194.844ZM86.2492 200V189.697H88.339V191.113C88.3651 191.081 88.4237 190.996 88.5148 190.859L88.7492 190.508C89.2309 189.85 90.0252 189.521 91.132 189.521C91.2492 189.521 91.3664 189.531 91.4836 189.551V191.299C90.2987 191.318 89.4458 191.647 88.925 192.285C88.6906 192.572 88.4953 192.939 88.339 193.389V200H86.2492ZM94.6077 190.791C95.454 189.945 96.3948 189.521 97.4299 189.521C98.0419 189.521 98.5823 189.642 99.051 189.883C99.5198 190.124 99.8648 190.488 100.086 190.977C101.056 190.007 102.02 189.521 102.977 189.521C103.804 189.521 104.517 189.736 105.115 190.166C105.76 190.628 106.082 191.331 106.082 192.275V200H103.992V192.822C103.992 192.36 103.823 191.989 103.485 191.709C103.146 191.429 102.775 191.289 102.371 191.289C101.974 191.289 101.584 191.406 101.199 191.641C100.815 191.868 100.529 192.096 100.34 192.324V200H98.2503V192.822C98.2503 192.354 98.107 191.982 97.8206 191.709C97.5406 191.429 97.2021 191.289 96.8049 191.289C96.4143 191.289 95.9944 191.41 95.5452 191.65C95.096 191.885 94.7835 192.109 94.6077 192.324V200H92.5178V189.697H94.6077V190.791ZM109.704 197.344C109.704 197.728 109.799 198.008 109.988 198.184C110.176 198.353 110.411 198.438 110.691 198.438C110.971 198.438 111.179 198.421 111.316 198.389C111.459 198.356 111.599 198.307 111.736 198.242L112.097 198.057C112.201 197.998 112.318 197.917 112.449 197.812L112.732 197.588C112.784 197.542 112.869 197.467 112.986 197.363L113.161 197.197V194.785C111.703 195.124 110.749 195.488 110.3 195.879C109.903 196.23 109.704 196.719 109.704 197.344ZM113.454 200C113.259 199.883 113.161 199.58 113.161 199.092L112.976 199.307C112.416 199.906 111.615 200.205 110.574 200.205C109.311 200.205 108.445 199.759 107.976 198.867C107.735 198.424 107.615 197.913 107.615 197.334C107.615 196.755 107.716 196.24 107.917 195.791C108.126 195.335 108.461 194.935 108.923 194.59C109.763 193.965 111.176 193.454 113.161 193.057C113.161 192.594 113.145 192.311 113.113 192.207C113.087 192.103 113.054 192.005 113.015 191.914C112.982 191.823 112.94 191.755 112.888 191.709C112.836 191.657 112.771 191.602 112.693 191.543C112.615 191.484 112.523 191.442 112.419 191.416C112.165 191.351 111.882 191.318 111.57 191.318C111.264 191.318 110.974 191.367 110.701 191.465C110.434 191.556 110.219 191.66 110.056 191.777C109.9 191.895 109.757 192.031 109.626 192.188C109.457 192.396 109.337 192.578 109.265 192.734L107.898 191.895C108.184 191.302 108.432 190.908 108.64 190.713C108.848 190.511 109.053 190.339 109.255 190.195C109.457 190.052 109.672 189.938 109.9 189.854C110.447 189.652 111.003 189.551 111.57 189.551C112.136 189.551 112.585 189.583 112.917 189.648C113.256 189.707 113.575 189.818 113.874 189.98C114.18 190.137 114.431 190.348 114.626 190.615C115.043 191.195 115.251 192.041 115.251 193.154V198.545C115.251 198.727 115.284 198.984 115.349 199.316C115.421 199.648 115.486 199.876 115.544 200H113.454ZM117.223 200.029V185.205H119.313V200.029H117.223ZM120.757 202.891L121.539 200.449H120.816V198.076H123.199V200L121.714 202.891H120.757ZM129.32 191.465V189.697H130.853V185.938H132.943V189.697H135.101V191.465H132.943V196.992C132.943 197.546 133.041 197.926 133.236 198.135C133.438 198.337 133.773 198.438 134.242 198.438C134.431 198.438 134.62 198.424 134.808 198.398C135.004 198.372 135.101 198.356 135.101 198.35V199.824C134.75 199.987 134.476 200.091 134.281 200.137C134.092 200.182 133.858 200.205 133.578 200.205C133.304 200.205 133.099 200.202 132.963 200.195C132.832 200.189 132.67 200.166 132.474 200.127C132.286 200.088 132.12 200.036 131.976 199.971C131.84 199.899 131.696 199.798 131.547 199.668C131.397 199.538 131.273 199.382 131.176 199.199C130.961 198.783 130.853 198.242 130.853 197.578V191.465H129.32ZM136.204 197.422V189.697H138.294V196.875C138.294 197.344 138.434 197.718 138.714 197.998C139 198.271 139.336 198.408 139.72 198.408C140.11 198.408 140.498 198.294 140.882 198.066C141.272 197.832 141.562 197.601 141.751 197.373V189.697H143.841V200H141.751V198.906C140.905 199.753 140.026 200.176 139.114 200.176C138.294 200.176 137.613 199.961 137.073 199.531C136.494 199.069 136.204 198.366 136.204 197.422ZM152.843 197.402C153.487 198.073 154.191 198.408 154.952 198.408C155.747 198.408 156.316 198.066 156.661 197.383C156.967 196.784 157.12 195.885 157.12 194.688C157.12 193.366 156.905 192.451 156.476 191.943C156.111 191.507 155.571 191.289 154.855 191.289C154.106 191.289 153.481 191.624 152.98 192.295C152.895 192.412 152.849 192.474 152.843 192.48V197.402ZM152.843 190.469C153.338 189.837 154.06 189.521 155.011 189.521C156.651 189.521 157.843 190.28 158.585 191.797C159.002 192.643 159.21 193.597 159.21 194.658C159.21 197.139 158.598 198.77 157.374 199.551C156.723 199.967 155.89 200.176 154.874 200.176C154.379 200.176 153.946 200.078 153.575 199.883C153.204 199.681 152.96 199.492 152.843 199.316V204.004H150.753V189.697H152.843V190.469ZM160.596 200V189.697H162.686V200H160.596ZM160.449 188.799V186.426H162.822V188.799H160.449ZM166.464 193.633H170.077C170.077 193.125 169.99 192.686 169.814 192.314C169.475 191.631 169.006 191.289 168.408 191.289C168.049 191.289 167.734 191.37 167.46 191.533C167.193 191.689 166.992 191.895 166.855 192.148C166.594 192.624 166.464 193.118 166.464 193.633ZM164.824 198.008C164.622 197.559 164.478 197.1 164.394 196.631C164.316 196.156 164.277 195.56 164.277 194.844C164.277 194.121 164.361 193.421 164.531 192.744C164.7 192.067 164.918 191.53 165.185 191.133C165.452 190.729 165.774 190.404 166.152 190.156C166.796 189.733 167.555 189.521 168.427 189.521C169.247 189.521 169.964 189.766 170.576 190.254C171.721 191.178 172.268 192.894 172.216 195.4H166.367C166.367 196.715 166.715 197.601 167.411 198.057C167.77 198.291 168.144 198.408 168.534 198.408C168.932 198.408 169.26 198.359 169.521 198.262C169.781 198.164 169.99 198.053 170.146 197.93C170.302 197.806 170.445 197.663 170.576 197.5C170.751 197.272 170.872 197.077 170.937 196.914L172.265 197.773C171.783 198.613 171.269 199.212 170.722 199.57C170.117 199.974 169.449 200.176 168.72 200.176C167.997 200.176 167.379 200.081 166.865 199.893C166.357 199.704 165.94 199.453 165.615 199.141C165.296 198.828 165.032 198.451 164.824 198.008ZM173.954 200.029V185.205H176.043V200.029H173.954ZM190.671 192.275V200H188.581V192.822C188.581 192.354 188.437 191.982 188.151 191.709C187.871 191.429 187.536 191.289 187.145 191.289C186.755 191.289 186.367 191.406 185.983 191.641C185.599 191.868 185.312 192.096 185.124 192.324V200H183.034V189.697H185.124V190.791C185.501 190.413 185.895 190.107 186.305 189.873C186.722 189.639 187.207 189.521 187.76 189.521C188.607 189.521 189.303 189.753 189.85 190.215C190.397 190.671 190.671 191.357 190.671 192.275ZM194.234 193.662C194.195 194.007 194.176 194.378 194.176 194.775C194.176 195.173 194.195 195.531 194.234 195.85C194.273 196.169 194.342 196.488 194.439 196.807C194.543 197.126 194.674 197.402 194.83 197.637C195.181 198.158 195.676 198.418 196.314 198.418C197.727 198.418 198.433 197.23 198.433 194.854C198.433 193.46 198.225 192.493 197.808 191.953C197.47 191.51 196.972 191.289 196.314 191.289C195.11 191.289 194.416 192.08 194.234 193.662ZM192.086 194.844C192.086 193.216 192.46 191.924 193.209 190.967C193.964 190.003 194.999 189.521 196.314 189.521C197.187 189.521 197.942 189.743 198.58 190.186C199.875 191.09 200.523 192.646 200.523 194.854C200.523 197.607 199.664 199.297 197.945 199.922C197.47 200.098 196.926 200.186 196.314 200.186C195.709 200.186 195.165 200.098 194.683 199.922C194.202 199.746 193.801 199.502 193.482 199.189C193.163 198.877 192.896 198.493 192.681 198.037C192.284 197.191 192.086 196.126 192.086 194.844ZM205.756 191.465V189.697H207.289V185.938H209.379V189.697H211.537V191.465H209.379V196.992C209.379 197.546 209.477 197.926 209.672 198.135C209.874 198.337 210.209 198.438 210.678 198.438C210.866 198.438 211.055 198.424 211.244 198.398C211.439 198.372 211.537 198.356 211.537 198.35V199.824C211.186 199.987 210.912 200.091 210.717 200.137C210.528 200.182 210.294 200.205 210.014 200.205C209.74 200.205 209.535 200.202 209.398 200.195C209.268 200.189 209.105 200.166 208.91 200.127C208.721 200.088 208.555 200.036 208.412 199.971C208.275 199.899 208.132 199.798 207.982 199.668C207.833 199.538 207.709 199.382 207.611 199.199C207.396 198.783 207.289 198.242 207.289 197.578V191.465H205.756ZM214.251 193.633H217.864C217.864 193.125 217.776 192.686 217.601 192.314C217.262 191.631 216.793 191.289 216.194 191.289C215.836 191.289 215.521 191.37 215.247 191.533C214.98 191.689 214.778 191.895 214.642 192.148C214.381 192.624 214.251 193.118 214.251 193.633ZM212.61 198.008C212.409 197.559 212.265 197.1 212.181 196.631C212.103 196.156 212.064 195.56 212.064 194.844C212.064 194.121 212.148 193.421 212.317 192.744C212.487 192.067 212.705 191.53 212.972 191.133C213.239 190.729 213.561 190.404 213.939 190.156C214.583 189.733 215.342 189.521 216.214 189.521C217.034 189.521 217.75 189.766 218.362 190.254C219.508 191.178 220.055 192.894 220.003 195.4H214.153C214.153 196.715 214.502 197.601 215.198 198.057C215.556 198.291 215.931 198.408 216.321 198.408C216.718 198.408 217.047 198.359 217.308 198.262C217.568 198.164 217.776 198.053 217.933 197.93C218.089 197.806 218.232 197.663 218.362 197.5C218.538 197.272 218.659 197.077 218.724 196.914L220.052 197.773C219.57 198.613 219.056 199.212 218.509 199.57C217.903 199.974 217.236 200.176 216.507 200.176C215.784 200.176 215.166 200.081 214.651 199.893C214.144 199.704 213.727 199.453 213.401 199.141C213.082 198.828 212.819 198.451 212.61 198.008ZM232.374 192.295C231.73 191.624 231.027 191.289 230.265 191.289C229.471 191.289 228.901 191.631 228.556 192.314C228.25 192.913 228.097 193.812 228.097 195.01C228.097 196.331 228.312 197.246 228.741 197.754C229.106 198.19 229.646 198.408 230.363 198.408C231.118 198.408 231.743 198.073 232.238 197.402C232.322 197.285 232.368 197.223 232.374 197.217V192.295ZM234.464 198.604C234.464 199.059 234.555 199.525 234.738 200H232.531C232.511 199.967 232.491 199.922 232.472 199.863L232.374 199.229C231.879 199.86 231.157 200.176 230.206 200.176C228.566 200.176 227.374 199.417 226.632 197.9C226.215 197.054 226.007 196.1 226.007 195.039C226.007 192.559 226.619 190.928 227.843 190.146C228.494 189.73 229.327 189.521 230.343 189.521C230.844 189.521 231.277 189.622 231.642 189.824C232.013 190.02 232.257 190.205 232.374 190.381V185.205H234.464V198.604ZM237.803 193.633H241.416C241.416 193.125 241.328 192.686 241.153 192.314C240.814 191.631 240.345 191.289 239.746 191.289C239.388 191.289 239.073 191.37 238.799 191.533C238.532 191.689 238.33 191.895 238.194 192.148C237.933 192.624 237.803 193.118 237.803 193.633ZM236.162 198.008C235.961 197.559 235.817 197.1 235.733 196.631C235.655 196.156 235.616 195.56 235.616 194.844C235.616 194.121 235.7 193.421 235.87 192.744C236.039 192.067 236.257 191.53 236.524 191.133C236.791 190.729 237.113 190.404 237.491 190.156C238.135 189.733 238.894 189.521 239.766 189.521C240.586 189.521 241.302 189.766 241.914 190.254C243.06 191.178 243.607 192.894 243.555 195.4H237.705C237.705 196.715 238.054 197.601 238.75 198.057C239.108 198.291 239.483 198.408 239.873 198.408C240.271 198.408 240.599 198.359 240.86 198.262C241.12 198.164 241.328 198.053 241.485 197.93C241.641 197.806 241.784 197.663 241.914 197.5C242.09 197.272 242.211 197.077 242.276 196.914L243.604 197.773C243.122 198.613 242.608 199.212 242.061 199.57C241.455 199.974 240.788 200.176 240.059 200.176C239.336 200.176 238.718 200.081 238.203 199.893C237.696 199.704 237.279 199.453 236.953 199.141C236.634 198.828 236.371 198.451 236.162 198.008ZM248.935 185.059C249.417 185.059 249.674 185.107 249.707 185.205V186.953H249.042C248.515 186.96 248.17 187.021 248.007 187.139C247.721 187.354 247.578 187.62 247.578 187.939V189.697H249.707V191.465H247.578V200H245.488V191.465H244.003V189.697H245.488V187.49C245.488 185.869 246.637 185.059 248.935 185.059ZM250.702 200V189.697H252.792V200H250.702ZM250.555 188.799V186.426H252.928V188.799H250.555ZM262.517 192.275V200H260.427V192.822C260.427 192.354 260.284 191.982 259.998 191.709C259.718 191.429 259.383 191.289 258.992 191.289C258.601 191.289 258.214 191.406 257.83 191.641C257.446 191.868 257.159 192.096 256.97 192.324V200H254.881V189.697H256.97V190.791C257.348 190.413 257.742 190.107 258.152 189.873C258.569 189.639 259.054 189.521 259.607 189.521C260.453 189.521 261.15 189.753 261.697 190.215C262.244 190.671 262.517 191.357 262.517 192.275ZM266.12 193.633H269.733C269.733 193.125 269.645 192.686 269.47 192.314C269.131 191.631 268.662 191.289 268.063 191.289C267.705 191.289 267.389 191.37 267.116 191.533C266.849 191.689 266.647 191.895 266.511 192.148C266.25 192.624 266.12 193.118 266.12 193.633ZM264.479 198.008C264.277 197.559 264.134 197.1 264.05 196.631C263.971 196.156 263.932 195.56 263.932 194.844C263.932 194.121 264.017 193.421 264.186 192.744C264.356 192.067 264.574 191.53 264.841 191.133C265.108 190.729 265.43 190.404 265.807 190.156C266.452 189.733 267.21 189.521 268.083 189.521C268.903 189.521 269.619 189.766 270.231 190.254C271.377 191.178 271.924 192.894 271.872 195.4H266.022C266.022 196.715 266.371 197.601 267.067 198.057C267.425 198.291 267.8 198.408 268.19 198.408C268.587 198.408 268.916 198.359 269.177 198.262C269.437 198.164 269.645 198.053 269.802 197.93C269.958 197.806 270.101 197.663 270.231 197.5C270.407 197.272 270.527 197.077 270.593 196.914L271.921 197.773C271.439 198.613 270.925 199.212 270.378 199.57C269.772 199.974 269.105 200.176 268.376 200.176C267.653 200.176 267.035 200.081 266.52 199.893C266.013 199.704 265.596 199.453 265.27 199.141C264.951 198.828 264.688 198.451 264.479 198.008ZM272.887 200V197.627H275.269V200H272.887Z" fill="black"/>
<rect x="47" y="100" width="182" height="63" stroke="black" stroke-width="2"/>
<path d="M84.3027 80.8398C81.7793 85.2188 78.2663 87.4082 73.7637 87.4082C71.5124 87.4082 69.459 86.8516 67.6035 85.7383C65.748 84.6003 64.2513 83.1035 63.1133 81.248C60.7383 77.3639 59.5508 72.9727 59.5508 68.0742C59.5508 64.4375 60.1322 61.0605 61.2949 57.9434C62.4824 54.8262 64.2142 52.3027 66.4902 50.373C68.7663 48.4186 71.1908 47.4414 73.7637 47.4414C76.3613 47.4414 78.6497 48.1094 80.6289 49.4453C82.6081 50.7812 83.8327 51.9564 84.3027 52.9707V30.7793H89.2012V81.582C89.2012 82.3242 89.3001 83.3014 89.498 84.5137C89.7207 85.7012 89.9434 86.5299 90.166 87H85.2305C84.612 86.7031 84.3027 84.6497 84.3027 80.8398ZM64.4492 68.0742C64.4492 72.4531 65.2285 76.0404 66.7871 78.8359C68.4199 81.7799 71.0052 83.252 74.543 83.252C76.8932 83.252 78.8229 82.584 80.332 81.248C81.5443 80.1842 82.8678 78.6628 84.3027 76.6836V57.2012C81.6803 53.4655 78.7487 51.5977 75.5078 51.5977C68.1354 51.5977 64.4492 57.0898 64.4492 68.0742ZM96.0664 67.1836C96.0664 61.1966 97.4023 56.4095 100.074 52.8223C102.771 49.235 106.531 47.4414 111.355 47.4414C116.18 47.4414 119.915 49.2474 122.562 52.8594C125.234 56.4714 126.57 61.2956 126.57 67.332C126.57 73.3685 125.222 78.2298 122.525 81.916C119.854 85.6022 116.13 87.4453 111.355 87.4453C106.482 87.4453 102.697 85.5404 100 81.7305C97.3776 77.9948 96.0664 73.1458 96.0664 67.1836ZM100.965 67.4062C100.965 75.2487 103.006 80.2214 107.088 82.3242C108.325 82.9674 109.747 83.2891 111.355 83.2891C112.964 83.2891 114.386 82.9674 115.623 82.3242C116.885 81.681 117.887 80.8522 118.629 79.8379C119.371 78.8236 119.977 77.599 120.447 76.1641C121.264 73.6654 121.672 70.7585 121.672 67.4434C121.672 56.8796 118.221 51.5977 111.318 51.5977C104.416 51.5977 100.965 56.8672 100.965 67.4062ZM133.807 87V47.8496H138.705V54.2695C140.882 52.1172 142.948 50.4473 144.902 49.2598C146.857 48.0475 149.158 47.4414 151.805 47.4414C154.452 47.4414 156.691 48.3073 158.521 50.0391C160.352 51.7708 161.268 54.3685 161.268 57.832V87H156.369V57.832C156.369 55.9766 155.701 54.4798 154.365 53.3418C153.054 52.179 151.632 51.5977 150.098 51.5977C146.436 51.5977 142.639 53.7376 138.705 58.0176V87H133.807ZM167.947 48.1836L171.176 38.9062H168.764V33.3398H174.33V38.9062C173.662 40.3164 172.722 42.1966 171.51 44.5469C170.298 46.8971 169.654 48.1094 169.58 48.1836H167.947ZM179.08 52.0059V47.8496H185.686V33.5625H190.584V47.8496H199.564V52.0059H190.584V76.832C190.584 79.3307 190.967 81.0378 191.734 81.9531C192.501 82.8685 193.763 83.3262 195.52 83.3262C196.237 83.3262 197.09 83.2643 198.08 83.1406C199.07 83.0169 199.564 82.9427 199.564 82.918V86.5918C197.932 87.1855 196.336 87.4824 194.777 87.4824C193.243 87.4824 192.192 87.4453 191.623 87.3711C191.054 87.2969 190.361 87.0618 189.545 86.666C188.729 86.2702 188.061 85.7135 187.541 84.9961C186.304 83.2643 185.686 80.543 185.686 76.832V52.0059H179.08ZM78.7892 117.067C78.7892 112.792 75.2013 110.654 68.0255 110.654H62.7081V125.317H68.0255C71.3341 125.317 73.9552 124.608 75.8888 123.19C77.8224 121.751 78.7892 119.71 78.7892 117.067ZM55.006 153V104.177H71.6671C77.7257 104.177 81.9689 105.917 84.3966 109.397C85.7931 111.417 86.4913 113.877 86.4913 116.777C86.4913 121.934 84.923 125.93 81.7862 128.766C79.4874 130.807 76.4581 131.827 72.6984 131.827H62.7081V153H55.006ZM98.7866 132.375H107.907L103.363 116.616L98.7866 132.375ZM84.9292 153L98.851 104.177H107.294L121.216 153H113.772L109.744 138.853H96.9497L92.9214 153H84.9292ZM150.43 134.147V104.177H158.1V153H151.977L132.255 115.553V153H124.585V104.177H134.511L150.43 134.147ZM164.659 153V104.177H172.361V153H164.659ZM177.728 134.631C177.384 132.611 177.212 130.57 177.212 128.508C177.212 126.445 177.374 124.415 177.696 122.417C178.018 120.419 178.491 118.475 179.114 116.584C179.758 114.672 180.585 112.921 181.595 111.331C182.626 109.72 183.797 108.312 185.108 107.109C187.901 104.553 191.371 103.274 195.517 103.274C200.781 103.274 204.938 105.906 207.989 111.17C209.471 113.727 210.47 116.358 210.986 119.065V119.098L204.283 120.902C203.939 118.604 203.531 116.928 203.058 115.875C202.585 114.801 202.113 113.909 201.64 113.2C201.168 112.47 200.652 111.868 200.093 111.396C198.761 110.3 197.247 109.752 195.549 109.752C193.874 109.752 192.434 110.139 191.231 110.912C190.028 111.664 189.04 112.663 188.266 113.909C187.493 115.134 186.848 116.573 186.333 118.228C185.387 121.278 184.915 124.716 184.915 128.54C184.915 138.681 187.321 144.739 192.133 146.716C193.165 147.146 194.26 147.36 195.42 147.36C196.581 147.36 197.612 147.21 198.514 146.909C199.438 146.608 200.211 146.222 200.834 145.749C201.458 145.255 202.005 144.675 202.478 144.009C202.972 143.343 203.359 142.677 203.638 142.011C203.939 141.323 204.175 140.625 204.347 139.916C204.669 138.67 204.831 137.51 204.831 136.436L212.017 137.435C211.05 141.56 209.364 145.137 206.958 148.166C203.907 151.947 200.072 153.838 195.453 153.838C189.781 153.838 185.215 151.142 181.756 145.749C179.801 142.72 178.459 139.014 177.728 134.631ZM214.483 106.4H222.314L221.122 141.85H215.708L214.483 106.4ZM214.548 153V145.169H222.411V153H214.548Z" fill="black"/>
</svg>
